<svg xmlns="http://www.w3.org/2000/svg" viewBox="0 0 1185.04 227.84"><defs><style>.cls-1,.cls-12,.cls-2{fill:#fff;}.cls-2,.cls-5{font-size:82.91px;}.cls-10,.cls-12,.cls-2,.cls-5{font-family:Gotham-Black, Gotham Black;}.cls-3{letter-spacing:-0.02em;}.cls-4{letter-spacing:-0.01em;}.cls-10,.cls-5{fill:#fdf50b;}.cls-6{letter-spacing:-0.01em;}.cls-7{letter-spacing:-0.02em;}.cls-8{letter-spacing:-0.03em;}.cls-9{letter-spacing:0em;}.cls-10,.cls-12{font-size:99.85px;}.cls-11{letter-spacing:-0.03em;}</style></defs><title>placeAsset 2</title><g id="Layer_2" data-name="Layer 2"><g id="Layer_1-2" data-name="Layer 1"><path class="cls-1" d="M771.79,220.52l-32.26.69c-10.75.33-21.51.57-32.26,1S685.77,223,675,223.4l-32.26,1.24c-43,1.74-86,2.65-129.05,3l-64.55.11-32.28,0-16.14.1a39.8,39.8,0,0,1-4.21-.16l-2.11-.43a16.41,16.41,0,0,1-2-.65c-.33-.12-.68-.22-1-.37l-1-.48a14.13,14.13,0,0,1-1.87-1l-1.77-1.17-1.63-1.34a16.91,16.91,0,0,1-1.52-1.45,15.41,15.41,0,0,1-1.42-1.54l-1.32-1.62-1.17-1.73a16.09,16.09,0,0,1-1.08-1.78c-.33-.61-.69-1.21-1-1.83-.55-1.27-1.2-2.5-1.63-3.81a47.79,47.79,0,0,1-2.9-16.17c-.22-10.75-.39-21.51-.68-32.27l-.4-16.13-.06-2v-2.07c0-.69,0-1.39,0-2.08l.16-2.07.08-1,.16-1,.32-2.06c.28-1.36.58-2.72,1-4.06a36,36,0,0,1,8-14.73,24.06,24.06,0,0,1,6.88-5.25,21.31,21.31,0,0,1,8.55-2.23c21.51-.67,43-1.44,64.52-2s43-1.12,64.53-1.6l64.53-1.47c10.75-.27,21.51-.45,32.27-.64l32.27-.55,32.27-.4c10.76-.14,21.51-.28,32.27-.33l16.14-.11h16.14l16.14,0h1.52l.58,0c.77.05,1.54.1,2.31.18l2.26.48a17.81,17.81,0,0,1,2.18.71,23.79,23.79,0,0,1,7.58,4.71,18.25,18.25,0,0,1,1.56,1.54,16.41,16.41,0,0,1,1.45,1.63l1.34,1.71,1.17,1.81a16.84,16.84,0,0,1,1.08,1.85c.33.63.68,1.25,1,1.9.54,1.31,1.19,2.58,1.6,3.93a47.33,47.33,0,0,1,2.61,16.48q-.11,16.14-.11,32.28c0,5.38,0,10.76,0,16.14a49.91,49.91,0,0,1-2,16.12,35.37,35.37,0,0,1-8,14.1,22.71,22.71,0,0,1-6.57,4.85,19.77,19.77,0,0,1-7.93,1.94m0-.72a19,19,0,0,0,7.6-1.93,21.88,21.88,0,0,0,6.29-4.74,33.46,33.46,0,0,0,7.61-13.8c.36-1.27.64-2.58.91-3.87l.3-2,.15-1,.08-1,.16-2c.05-.66,0-1.33,0-2,0-1.32,0-2.66-.05-4-.14-5.38-.33-10.75-.53-16.13q-.55-16.13-1.22-32.25A43.64,43.64,0,0,0,790,120c-.42-1.21-1.06-2.32-1.59-3.47-.3-.56-.64-1.09-1-1.64a13.91,13.91,0,0,0-1-1.59l-1.09-1.53-1.22-1.41a13,13,0,0,0-1.29-1.33,13.9,13.9,0,0,0-1.36-1.23,18.77,18.77,0,0,0-6.19-3.49,12.35,12.35,0,0,0-1.67-.47l-1.7-.29-1.72,0-.43,0-.5,0-1,0-16.13.58-16.13.54-16.13.44c-10.75.32-21.51.55-32.26.78l-32.26.7-32.27.55c-10.75.18-21.51.36-32.27.47l-64.54.74c-21.51.25-43,.49-64.54.61s-43,.12-64.55.19a17.47,17.47,0,0,0-7,1.64,20.48,20.48,0,0,0-6,4.33,32.73,32.73,0,0,0-7.59,13.17c-.39,1.23-.69,2.5-1,3.76l-.35,1.92-.17,1-.1,1-.21,1.94c-.07.65-.06,1.3-.09,2l-.06,2v2l.16,16.13c.08,10.76.28,21.51.43,32.27a43.36,43.36,0,0,0,2.79,15.42c.41,1.25,1,2.4,1.56,3.59.29.58.63,1.14.95,1.71a14.59,14.59,0,0,0,1,1.66l1.1,1.61,1.23,1.5a13.77,13.77,0,0,0,1.32,1.41,15.19,15.19,0,0,0,1.4,1.32,19.61,19.61,0,0,0,6.53,3.83,14.08,14.08,0,0,0,1.8.53l1.85.34a37.8,37.8,0,0,0,3.85.06l16.13-.45,32.26-1.08,64.52-2.1q64.52-1.76,129.08-1.47l32.28.13q16.14.1,32.28.1c10.76,0,21.52-.08,32.27-.12Z"/><text class="cls-2" transform="translate(0 70.47)"><tspan class="cls-3">¿</tspan><tspan class="cls-4" x="43.2" y="0">C</tspan><tspan x="102.89" y="0">ómo </tspan></text><text class="cls-5" transform="translate(315.06 70.47)">puedo saber</text><text class="cls-2" transform="translate(841.21 70.47)"><tspan xml:space="preserve"> si e</tspan><tspan class="cls-6" x="163.58" y="0">s</tspan><tspan class="cls-7" x="205.45" y="0">t</tspan><tspan class="cls-8" x="239.94" y="0">o</tspan><tspan class="cls-9" x="291.92" y="0">y</tspan></text><text class="cls-10" transform="translate(404.08 201.05) rotate(-1.19)">acti<tspan class="cls-11" x="189.62" y="0">v</tspan><tspan x="248.83" y="0">o</tspan></text><text class="cls-12" transform="translate(713.25 194.65) rotate(-1.19)">?</text></g></g></svg>