<svg id="Layer_1" data-name="Layer 1" xmlns="http://www.w3.org/2000/svg" viewBox="0 0 95.12 116.46"><defs><style>.cls-1{fill:#fff;}.cls-2{fill:#f4eb3b;}</style></defs><title>6Artboard 1</title><g id="Layer_2" data-name="Layer 2"><g id="Layer_1-2" data-name="Layer 1-2"><path class="cls-1" d="M5.54,101.56a4,4,0,0,1-.58.2,3.05,3.05,0,0,1-.6.06,3.82,3.82,0,0,1-3.15-1.54,6.37,6.37,0,0,1-1.21-4A6.92,6.92,0,0,1,1.18,92a3.71,3.71,0,0,1,3.1-1.59A4.43,4.43,0,0,1,5,90.5a3.16,3.16,0,0,1,.59.2v2.08A2.54,2.54,0,0,0,5,92.59a2.48,2.48,0,0,0-.54-.06,1.9,1.9,0,0,0-1.65,1,4.74,4.74,0,0,0-.63,2.6,4.5,4.5,0,0,0,.65,2.53,2,2,0,0,0,1.67,1,1.76,1.76,0,0,0,.5-.13,3.13,3.13,0,0,0,.54-.19Z"/><path class="cls-1" d="M13.59,96.29a7.38,7.38,0,0,1-1,4,3,3,0,0,1-2.6,1.49,2.93,2.93,0,0,1-2.62-1.5,7.81,7.81,0,0,1-.94-4.18,8,8,0,0,1,1-4.19,3,3,0,0,1,5.23,0A8.23,8.23,0,0,1,13.59,96.29ZM10,99.71a1.24,1.24,0,0,0,1.16-.89,9.44,9.44,0,0,0,0-5.37A1.24,1.24,0,0,0,10,92.56a1.22,1.22,0,0,0-1.16.88,9.51,9.51,0,0,0,0,5.39A1.24,1.24,0,0,0,10,99.71Z"/><path class="cls-1" d="M14.34,101.69l1-11.11H18l.52,4.24c.08.64.15,1.26.2,1.85s.1,1.16.13,1.72l.2-2.31q.09-.85.15-1.26l.65-4.24h2.58l.85,11.11H21.18L21,96.53V96c-.07-1.35-.09-2.45-.09-3.31l-1.32,9H18.07L16.83,92.6c0,.76,0,1.84-.13,3.24v.72l-.31,5.13Z"/><path class="cls-1" d="M24.41,101.69V90.58h2.06v11.11Z"/><path class="cls-1" d="M27.86,101.3V99a2.9,2.9,0,0,0,.75.55,1.59,1.59,0,0,0,.74.18,1.14,1.14,0,0,0,.81-.29,1.07,1.07,0,0,0,.3-.81,2,2,0,0,0-.8-1.37l-.34-.32A6.19,6.19,0,0,1,28,95.29a3.69,3.69,0,0,1-.34-1.64,3.5,3.5,0,0,1,.74-2.33,2.39,2.39,0,0,1,1.93-.88,2.63,2.63,0,0,1,.84.13A4.61,4.61,0,0,1,32,91v2a6.28,6.28,0,0,0-.83-.39,1.56,1.56,0,0,0-.52-.11.94.94,0,0,0-.72.3,1.14,1.14,0,0,0-.28.79,1.56,1.56,0,0,0,.21.79,5.5,5.5,0,0,0,1,1.1A5.94,5.94,0,0,1,32.23,97a3.82,3.82,0,0,1,.29,1.53,3.45,3.45,0,0,1-.78,2.39,2.68,2.68,0,0,1-2.13.88,3.4,3.4,0,0,1-.95-.13A2.54,2.54,0,0,1,27.86,101.3Z"/><path class="cls-1" d="M33.71,101.69V90.58h2.07v11.11Z"/><path class="cls-1" d="M44.26,96.29a7.38,7.38,0,0,1-1,4,3,3,0,0,1-2.6,1.49,2.93,2.93,0,0,1-2.62-1.5,7.81,7.81,0,0,1-.94-4.18,7.92,7.92,0,0,1,1-4.1,3,3,0,0,1,5.23,0A8.21,8.21,0,0,1,44.26,96.29Zm-3.57,3.42a1.24,1.24,0,0,0,1.16-.89,9.44,9.44,0,0,0,0-5.37,1.24,1.24,0,0,0-1.16-.89,1.22,1.22,0,0,0-1.16.88,9.69,9.69,0,0,0,0,5.39A1.24,1.24,0,0,0,40.69,99.71Zm2-13-2.08,2.82h-.93L41,86.75Z"/><path class="cls-1" d="M45.51,101.69V90.58h2.05l2,6c.06.19.14.49.25.89s.23.86.37,1.4c-.1-.79-.18-1.51-.23-2.17s-.08-1.26-.08-1.83V90.58H51.8v11.11H49.92L47.7,95.47a11,11,0,0,1-.29-1.13c-.08-.31-.14-.54-.18-.72.05.43.08.92.11,1.46s0,1.19,0,1.94v4.67Z"/><path class="cls-1" d="M56.53,101.69V90.58h4.26v2.06h-2.3v2.24h2.09v2H58.49v2.6h2.3v2.17Z"/><path class="cls-1" d="M61.85,101.3V99a2.9,2.9,0,0,0,.75.55,1.59,1.59,0,0,0,.74.18,1.1,1.1,0,0,0,.81-.29,1.07,1.07,0,0,0,.3-.81,2,2,0,0,0-.8-1.37l-.34-.32A6.16,6.16,0,0,1,62,95.29a3.7,3.7,0,0,1-.35-1.64,3.5,3.5,0,0,1,.74-2.33,2.39,2.39,0,0,1,1.93-.88,2.63,2.63,0,0,1,.84.13A4.07,4.07,0,0,1,66,91v2a6.28,6.28,0,0,0-.83-.39,1.56,1.56,0,0,0-.52-.11,1,1,0,0,0-.72.3,1.14,1.14,0,0,0-.28.79,1.56,1.56,0,0,0,.21.79,5.82,5.82,0,0,0,1,1.1A5.78,5.78,0,0,1,66.22,97a3.82,3.82,0,0,1,.29,1.53,3.45,3.45,0,0,1-.78,2.39,2.68,2.68,0,0,1-2.13.88,3.06,3.06,0,0,1-1-.13A2.62,2.62,0,0,1,61.85,101.3Z"/><path class="cls-1" d="M68.57,101.69v-9H67V90.58h5.14v2.06H70.61v9Z"/><path class="cls-1" d="M71.93,101.69,74.3,90.58h2.12l2.25,11.11h-2l-.34-2h-2l-.31,2ZM74.64,98H76c-.13-.77-.26-1.59-.37-2.44s-.21-1.74-.29-2.68c-.1.83-.21,1.67-.32,2.52S74.76,97.13,74.64,98Z"/><path class="cls-1" d="M80,101.69v-9H78.43V90.58h5.14v2.06H82v9Z"/><path class="cls-1" d="M83.34,101.69l2.37-11.11h2.12l2.25,11.11h-2l-.34-2h-2l-.31,2ZM86.05,98h1.34c-.13-.77-.26-1.59-.37-2.44s-.21-1.74-.29-2.68c-.1.83-.21,1.67-.32,2.52S86.17,97.13,86.05,98Z"/><path class="cls-1" d="M90.81,101.69V90.58h2v8.94h2.31v2.17Z"/><path class="cls-1" d="M9.8,116.33V105.22h1.74A4.3,4.3,0,0,1,15,106.6a6.29,6.29,0,0,1,1.16,4.18,8.24,8.24,0,0,1-.42,2.83,4.44,4.44,0,0,1-1.33,1.89,3.28,3.28,0,0,1-1.21.64,7.73,7.73,0,0,1-1.92.19Zm2-2.06H12a1.84,1.84,0,0,0,1.65-.88,4.73,4.73,0,0,0,.57-2.58,5.22,5.22,0,0,0-.55-2.69,1.86,1.86,0,0,0-1.69-.87H11.8Z"/><path class="cls-1" d="M17.46,116.33V105.22h4.26v2.06h-2.3v2.24h2.09v2H19.42v2.6h2.3v2.17Z"/><path class="cls-1" d="M26.23,116.33V105.22h4.26v2.06H28.18v2.24h2.1v2h-2.1v2.6h2.31v2.17Z"/><path class="cls-1" d="M31.86,116.33V105.22h2v8.94h2.31v2.17Z"/><path class="cls-1" d="M37,116.33V105.22h4.26v2.06H38.92v2.24H41v2H38.9v2.6h2.31v2.17Z"/><path class="cls-1" d="M47.82,116.2a4.1,4.1,0,0,1-.59.2,2.88,2.88,0,0,1-.59.06,3.79,3.79,0,0,1-3.15-1.54,6.32,6.32,0,0,1-1.22-4,6.89,6.89,0,0,1,1.19-4.2,3.69,3.69,0,0,1,3.09-1.59,3.79,3.79,0,0,1,.67.06,3,3,0,0,1,.6.2v2.08a2.73,2.73,0,0,0-.57-.19,2.48,2.48,0,0,0-.54-.06,1.89,1.89,0,0,0-1.64,1,4.66,4.66,0,0,0-.64,2.6,4.5,4.5,0,0,0,.65,2.53,2,2,0,0,0,1.67,1,1.88,1.88,0,0,0,.53-.07,3.13,3.13,0,0,0,.54-.19Z"/><path class="cls-1" d="M54.29,116.2a3.16,3.16,0,0,1-.59.2,2.88,2.88,0,0,1-.59.06A3.84,3.84,0,0,1,50,114.92a6.37,6.37,0,0,1-1.21-4,6.9,6.9,0,0,1,1.18-4.2,3.79,3.79,0,0,1,3.76-1.53,3,3,0,0,1,.6.2v2.08a2.6,2.6,0,0,0-1.1-.25,1.9,1.9,0,0,0-1.65,1,4.74,4.74,0,0,0-.63,2.6,4.42,4.42,0,0,0,.65,2.53,2,2,0,0,0,1.67,1,1.81,1.81,0,0,0,.52-.07,3.13,3.13,0,0,0,.54-.19Z"/><path class="cls-1" d="M55.63,116.33V105.22H57.7v11.11Z"/><path class="cls-1" d="M66.18,110.93a7.38,7.38,0,0,1-1,4,3,3,0,0,1-2.6,1.49A3,3,0,0,1,60,115a9.72,9.72,0,0,1,0-8.36,2.92,2.92,0,0,1,2.61-1.52,3,3,0,0,1,2.62,1.55A8.3,8.3,0,0,1,66.18,110.93Zm-3.57,3.42a1.24,1.24,0,0,0,1.16-.89,9.44,9.44,0,0,0,0-5.37,1.24,1.24,0,0,0-1.16-.89,1.23,1.23,0,0,0-1.16.89,9.47,9.47,0,0,0,0,5.38A1.24,1.24,0,0,0,62.61,114.35Z"/><path class="cls-1" d="M67.43,116.33V105.22h2l2,6c.06.19.14.49.25.89s.23.86.37,1.4c-.11-.79-.18-1.51-.23-2.16s-.08-1.27-.08-1.84v-4.27h1.87v11.11H71.84l-2.22-6.22c0-.09-.14-.47-.3-1.13-.07-.31-.13-.54-.17-.72,0,.44.08.92.1,1.46s0,1.19,0,1.94v4.67Z"/><path class="cls-1" d="M75.31,116.33V105.22h4.27v2.06H77.27v2.24h2.09v2H77.27v2.6h2.31v2.17Z"/><path class="cls-1" d="M80.63,115.94v-2.31a2.9,2.9,0,0,0,.75.55,1.63,1.63,0,0,0,.75.18,1,1,0,0,0,1.1-.89.74.74,0,0,0,0-.21,2,2,0,0,0-.8-1.37c-.14-.13-.26-.24-.33-.32a6,6,0,0,1-1.28-1.64,3.7,3.7,0,0,1-.35-1.64,3.5,3.5,0,0,1,.74-2.33,2.41,2.41,0,0,1,1.94-.88,2.63,2.63,0,0,1,.84.13,4.65,4.65,0,0,1,.87.42v2a6.28,6.28,0,0,0-.83-.39,1.62,1.62,0,0,0-.53-.11.91.91,0,0,0-.71.3,1.14,1.14,0,0,0-.28.79,1.59,1.59,0,0,0,.21.8,6.08,6.08,0,0,0,1,1.09A5.79,5.79,0,0,1,85,111.66a3.64,3.64,0,0,1,.3,1.53,3.41,3.41,0,0,1-.79,2.39,2.67,2.67,0,0,1-2.12.88,3.06,3.06,0,0,1-1-.13A2.74,2.74,0,0,1,80.63,115.94Z"/><path class="cls-1" d="M78,4.26,63.68.12,53.84,5.84l-6.76,7-3.64,5.74L42.12,22l-.94,13.17s.14,6.94.4,7l13.2.94,6.95-5.78S66.22,27.24,66.41,27s5-10.67,5-10.67L75,10.75Z"/><path class="cls-1" d="M70.07,34.49c-.88-.34-.36-.93-.21-1.37,1.31-3.82,3-7.51,3.9-11.47a1.49,1.49,0,0,1,1.29-1.25c.67-.09,1.36-.09,2-.14a2.29,2.29,0,0,0,2.23-1.11c-1-.53-1.8,0-2.66.13s-2,.62-2-1a.44.44,0,0,0-.5-.39h-.07a.64.64,0,0,0-.55.62c0,1-.77,1.11-1.48,1.28-.28.07-.64.21-.84-.06s.12-.53.27-.76c.72-1.1,1.48-2.18,2.17-3.31C75.47,12.64,77,9.4,79,6.42c.31-.48,1-1,0-1.48-.8-.41-1.41-1.47-2.39-.12a54.87,54.87,0,0,0-4,6.51c-.78,1.45-1.23,3.16-2.37,4.34A184.64,184.64,0,0,0,55.58,33.44c-1.22,1.62-2.45,2.64-4.56,2.61-1,0-1.15-.17-1-1.11a40.14,40.14,0,0,1,7-17.23l.72-1.06a3.56,3.56,0,0,0-2.07,1.85c-.63,1-1.19,2-1.78,3-.11.19-.23.37-.47.33s-.25-.23-.22-.4c.19-1.08-.5-1.06-1.24-1-2,.1-4.08.16-6.13.3-1,.06-1.29-.07-.73-1.12A45.38,45.38,0,0,1,57.38,4.84,32.86,32.86,0,0,1,63.79.92c.21-.1.54-.15.5-.48S63.9.18,63.68.13a4.92,4.92,0,0,0-2.16,0C57.27,1,54.17,3.92,51.11,6.55a38.86,38.86,0,0,0-8.88,11.79c-1,1.93-2,3.16-4.37,3.13-1.79,0-1.78.23-1.86-1.62,0-.46.21-1.07-.51-1.28-1.49-.44-2.24.09-2.36,1.65s-.38,1.67-1.83,1.65a9.11,9.11,0,0,0-1.28,0,1,1,0,0,0-1,.83c-.07.56.49.77.93.83a8.7,8.7,0,0,0,1.91,0c.85-.06,1.08.26,1,1.11-.26,3.21-.46,6.43-.65,9.65a1.44,1.44,0,0,1-.51,1C26.84,40,22.14,44.93,17,49.4c-1.22,1.07-1.22,1.06-2.24-.24-1.16-1.49-1.52-1.49-2.71,0-.79,1-.19,1.86.39,2.51.89,1,.76,1.68-.28,2.36a3.15,3.15,0,0,0-.3.24c-.45.33-.46.63,0,1a2,2,0,0,1,.56.7c.44,1,1,1,1.83.4.23-.16.65-.61.82-.08.25.75,1,1,1.37,1.52C18,60,19.72,62,21.37,64c4.44,5.54,8.56,11.28,12.78,17,1.72,2.3,1.79,2.25,0,4.52-.17.22-.29.43-.15.69s2.75,1.39,3,1.15c1.12-1.07,2.54-1.84,3.27-3.29,1,.55,1.76.12,2.58-.55,1.78-1.45,3.63-2.82,5.47-4.2C59.48,70.87,71,63,82.77,55.43c1.56,1.18,2.61,1.15,4.82-.32a12.68,12.68,0,0,1-1.22-.85c-.67-.61-.82-1.22.23-1.59.45-.16.51-.38.22-.73L85.23,50l-7.56-8.28L71,34.55c-.26-.28-.58-1-1-.06"/><path d="M85.23,50l1.59,1.9c.29.35.23.57-.22.73-1,.37-.9,1-.23,1.59a12.68,12.68,0,0,0,1.22.85c-2.21,1.47-3.26,1.5-4.82.32-.71-.7-1.41-.78-2,.1-.24.36-.62.44-.94.62-3.34,2-6.75,3.81-10,5.9-3.62,2.32-7.1,4.86-10.63,7.33-5.79,4.06-11.78,7.85-17.27,12.34-.39.32-.74.88-1.17,1-1.18.17-.89.7-.47,1.35-.73,1.45-2.15,2.22-3.27,3.29-.24.24-2.79-.8-3-1.15s0-.47.15-.69c1.78-2.27,1.71-2.22,0-4.52-4.24-5.68-8.36-11.42-12.8-17-1.65-2-3.37-4-4.87-6.23-.37-.56-1.12-.77-1.37-1.52-.17-.53-.59-.08-.82.08-.78.57-1.38.55-1.84-.4a1.72,1.72,0,0,0-.55-.7c-.49-.33-.48-.63,0-1l.3-.24c1-.68,1.17-1.36.28-2.36-.58-.65-1.18-1.52-.39-2.51,1.19-1.49,1.55-1.49,2.71,0,1,1.31,1,1.32,2.24.25,5.11-4.47,9.81-9.36,14.7-14a1.4,1.4,0,0,0,.51-1c.19-3.22.39-6.44.65-9.65.07-.85-.16-1.17-1-1.11A8.81,8.81,0,0,1,30,23.56c-.44-.06-1-.18-.93-.83s.49-.78,1-.83a9.11,9.11,0,0,1,1.28,0c1.45,0,1.72-.22,1.83-1.65s.87-2.08,2.36-1.65c.72.21.49.82.51,1.28.08,1.85.07,1.59,1.86,1.62,2.38,0,3.37-1.2,4.37-3.13A38.87,38.87,0,0,1,51.1,6.56C54.17,3.92,57.27,1,61.52.11a4.92,4.92,0,0,1,2.16,0c.22.06.57,0,.61.32s-.29.38-.5.48a32.86,32.86,0,0,0-6.41,3.92A45.25,45.25,0,0,0,45.09,19.55c-.56,1.05-.26,1.18.73,1.11,2-.13,4.09-.19,6.13-.29.74,0,1.43-.06,1.24,1,0,.17,0,.37.22.4s.36-.14.47-.33c.59-1,1.15-2,1.78-3a3.56,3.56,0,0,1,2.07-1.85L57,17.71a40.14,40.14,0,0,0-7,17.23c-.13.94,0,1.1,1,1.11,2.11,0,3.34-1,4.56-2.61A184.54,184.54,0,0,1,70.21,15.67c1.14-1.18,1.59-2.89,2.37-4.35a54.75,54.75,0,0,1,4-6.5c1-1.35,1.59-.29,2.39.12,1.06.53.32,1,0,1.48-2,3-3.54,6.22-5.39,9.27-.69,1.13-1.45,2.21-2.17,3.31-.15.23-.52.44-.27.76s.55.13.84.06c.71-.17,1.47-.29,1.48-1.28a.64.64,0,0,1,.55-.62.45.45,0,0,1,.56.31s0,.05,0,.07c.08,1.6,1.2,1.07,2,1s1.69-.66,2.66-.13A2.29,2.29,0,0,1,77,20.28a9.38,9.38,0,0,0-2,.14,1.46,1.46,0,0,0-1.28,1.25c-.91,4-2.6,7.65-3.91,11.46-.15.45-.67,1,.21,1.38.41.48.85.94,1.22,1.46,3.52,4.88,7.83,9.09,11.65,13.72.74.9,1.38,1.11,2.29.37m-20.54-4.4c.21-.51.44-1,.61-1.53,1.58-5,3-10.09,4.91-15a43.1,43.1,0,0,0,2.16-7.19c.06-.28.37-.64-.1-.89a5.76,5.76,0,0,0-3.45.68c-4.24,5-8.52,10-12.28,15.38-.6.87-1.32,2-2.47,2.1-2.06.11-4.14-.09-6.22-.16-.29,0-.68,0-.55-.46.3-1.06,0-2.38,1.24-3.07a1.1,1.1,0,0,0,.48-.84A52.3,52.3,0,0,1,53.17,22.8c.34-.7.12-.77-.52-.76q-8,.21-15.92,1.11c-.49.06-.76.16-.8.74-.2,3.26-.45,6.53-.69,9.8-.25,4-.48,8.08-.75,12.12-.09,1.35-.32,2.7-.42,4-.07,1,.4,1.36,1.49,1.15,2.58-.49,5.15-1,7.78-1.29C50,48.94,56.56,47.86,63.15,47c.9-.12,1.41-.46,1.54-1.34M23.41,56.25c-.45-.07-1.07.18-1.21-.3-.37-1.19-1.39-1.66-2.27-2.31-.2-.15-.52-.26-.38-.56.23-.52.88-.46,1.27-.79.19-.16.4-.15.42.18.05.8.61.41.94.35l7.65-1.5c.76-.14,1-.53,1.15-1.25.57-2.73.35-5.49.47-8.24a.8.8,0,0,0-.37-.76c-.32-.17-.52.2-.73.4-.77.73-1.51,1.5-2.29,2.23-2.95,2.78-6.17,5.26-9,8.2a1.31,1.31,0,0,0-.31,1.83l.15.17c3.69,4.85,7.28,9.77,10.62,14.88a79.62,79.62,0,0,0,8.35,11c.42.46.74,1,1.52.31,7.09-5.92,15-10.74,22.52-16,5.46-3.8,11-7.54,16.46-11.28.62-.42.79-.65.35-1.44A13.56,13.56,0,0,0,76.78,49a93.55,93.55,0,0,0-7.16-8c-1.28-1.18-1.31-1.18-1.81.42-.7,2.28-1.36,4.57-2.07,6.85A2,2,0,0,1,63.87,50c-4.92.17-9.73,1.15-14.58,1.85-5.61.81-11.24,1.59-16.8,2.68-3,.59-6.11,1.06-9.08,1.77"/><path class="cls-2" d="M40.27,84c-.42-.65-.71-1.18.47-1.35.43-.07.78-.63,1.17-1,5.49-4.49,11.48-8.28,17.27-12.34,3.53-2.47,7-5,10.63-7.33,3.25-2.09,6.66-3.94,10-5.89.32-.19.7-.27.94-.63.61-.88,1.31-.8,2-.1C71,63,59.48,70.87,48.32,79.27c-1.84,1.38-3.69,2.75-5.47,4.2-.82.67-1.56,1.1-2.58.55"/><path class="cls-2" d="M85.23,50c-.91.74-1.55.53-2.29-.37C79.12,45,74.81,40.83,71.29,36a17.46,17.46,0,0,0-1.22-1.46c.37-.92.69-.22,1,.06q3.34,3.59,6.65,7.21L85.23,50"/><path class="cls-2" d="M23.41,56.25c3-.71,6-1.18,9.08-1.77,5.56-1.09,11.19-1.87,16.8-2.68,4.85-.7,9.71-1.68,14.58-1.8a2,2,0,0,0,1.89-1.61c.71-2.28,1.37-4.57,2.07-6.85.5-1.6.53-1.6,1.81-.42a93.55,93.55,0,0,1,7.16,8,13.56,13.56,0,0,1,1.94,2.33c.44.79.27,1-.35,1.44-5.5,3.74-11,7.48-16.46,11.28-7.56,5.26-15.43,10.08-22.52,16-.78.66-1.1.15-1.52-.31a79.62,79.62,0,0,1-8.35-11c-3.34-5.11-6.93-10-10.62-14.88a1.3,1.3,0,0,1,0-1.85.8.8,0,0,1,.17-.15c2.81-2.94,6-5.42,9-8.2.78-.73,1.52-1.5,2.29-2.23.21-.2.41-.57.73-.4a.8.8,0,0,1,.37.76c-.12,2.75.1,5.51-.47,8.24-.15.72-.39,1.11-1.15,1.25-2.56.47-5.1,1-7.65,1.5-.33.06-.89.45-.94-.35,0-.33-.23-.34-.42-.18-.39.33-1,.27-1.27.79-.14.3.18.41.38.56.88.65,1.9,1.12,2.27,2.31.14.48.76.23,1.21.3"/><path class="cls-1" d="M35.28,33.65c.24-3.27.48-6.53.69-9.8,0-.58.31-.68.8-.74q7.93-.9,15.92-1.11c.64,0,.86.06.52.76A52.36,52.36,0,0,0,49,34.64a1.11,1.11,0,0,1-.48.85c-1.21.68-.94,2-1.24,3.06-.13.45.26.45.56.46,2.07.07,4.15.28,6.21.16,1.16-.06,1.87-1.23,2.47-2.1,3.76-5.4,8-10.37,12.28-15.38A5.75,5.75,0,0,1,72.27,21c.47.25.16.61.1.89a44,44,0,0,1-2.15,7.19c-1.89,4.93-3.34,10-4.92,15-.17.52-.4,1-.61,1.53L53,47.05c-5.37.67-10.73,1.32-16.09,2-.93.12-1.17-.14-1.18-1,0-2-.11-3.91-.19-5.86-.12-2.84,0-5.69-.3-8.52"/><path class="cls-2" d="M35.28,33.65c.33,2.83.18,5.68.3,8.52.08,1.95.19,3.91.19,5.86,0,.91.25,1.17,1.18,1,5.36-.71,10.72-1.36,16.09-2l11.65-1.41c-.14.88-.64,1.22-1.54,1.34-6.59.89-13.16,2-19.77,2.7-2.63.3-5.2.8-7.78,1.29-1.09.21-1.56-.1-1.49-1.15.1-1.35.33-2.7.42-4,.27-4,.5-8.08.75-12.12"/></g></g></svg>