<svg xmlns="http://www.w3.org/2000/svg" width="21.52" height="21.52" viewBox="0 0 21.52 21.52">
  <defs>
    <style>
      .cls-1 {
        fill: #fff;
      }
    </style>
  </defs>
  <title>Instagram-L</title>
  <g id="Layer_2" data-name="Layer 2">
    <g id="Layer_1-2" data-name="Layer 1">
      <path class="cls-1" d="M16.42,4a1.27,1.27,0,1,0,1.27,1.27A1.26,1.26,0,0,0,16.42,4M10.8,5.58a5.32,5.32,0,1,0,5.31,5.32A5.33,5.33,0,0,0,10.8,5.58m0,8.72a3.41,3.41,0,1,1,3.4-3.4,3.41,3.41,0,0,1-3.4,3.4M21.52,6.48A6.48,6.48,0,0,0,15,0H6.48A6.48,6.48,0,0,0,0,6.48V15a6.48,6.48,0,0,0,6.48,6.48H15A6.48,6.48,0,0,0,21.52,15Zm-2,8.56A4.45,4.45,0,0,1,15,19.49H6.48A4.45,4.45,0,0,1,2,15V6.48A4.45,4.45,0,0,1,6.48,2H15a4.45,4.45,0,0,1,4.45,4.45Z"/>
    </g>
  </g>
</svg>
