<svg xmlns="http://www.w3.org/2000/svg" viewBox="0 0 119.11 136.83"><defs><style>.cls-1{fill:#f5ea14;}.cls-2{fill:#fff;}</style></defs><title>logoAsset 7</title><g id="Layer_2" data-name="Layer 2"><g id="Layer_1-2" data-name="Layer 1"><path d="M102.66,31.74c-1.06.08-2.14.07-3.19.21a2.33,2.33,0,0,0-2,2c-1.42,6.2-4.06,12-6.11,18-.24.71-1.06,1.63.32,2.15.64.76,1.34,1.49,1.92,2.29,5.51,7.65,12.26,14.25,18.24,21.49,1.16,1.41,2.17,1.74,3.59.58l2.49,3c.46.55.36.89-.35,1.15-1.64.59-1.41,1.54-.35,2.5a18.18,18.18,0,0,0,1.91,1.33c-3.46,2.31-5.1,2.36-7.55.51-1.11-1.09-2.21-1.23-3.17.16-.38.55-1,.68-1.47,1-5.23,3.06-10.57,6-15.67,9.23-5.67,3.64-11.12,7.61-16.64,11.48C65.53,115,56.15,121,47.55,128c-.62.5-1.16,1.38-1.83,1.49-1.85.28-1.4,1.1-.74,2.12-1.14,2.27-3.36,3.49-5.11,5.16-.39.37-4.38-1.25-4.69-1.8s0-.73.24-1.08c2.78-3.56,2.67-3.48,0-7.09-6.61-8.88-13.08-17.87-20-26.5C12.79,97.08,10,94,7.75,90.51,7.17,89.63,6,89.3,5.6,88.12c-.27-.82-.93-.13-1.28.13-1.23.9-2.17.86-2.88-.63a2.82,2.82,0,0,0-.87-1.09c-.76-.53-.75-1,0-1.52.16-.12.3-.27.47-.37,1.63-1.06,1.83-2.13.44-3.7-.9-1-1.86-2.38-.62-3.92,1.88-2.34,2.43-2.34,4.25,0,1.6,2,1.6,2,3.51.38,8-7,15.37-14.67,23-22a2.16,2.16,0,0,0,.79-1.53c.3-5,.62-10.09,1-15.12.11-1.33-.25-1.83-1.59-1.73a14.36,14.36,0,0,1-3-.07c-.69-.1-1.56-.28-1.46-1.3s.76-1.22,1.54-1.31a15.83,15.83,0,0,1,2,0c2.27,0,2.7-.35,2.87-2.58.19-2.45,1.37-3.27,3.7-2.59,1.13.33.76,1.28.79,2,.13,2.91.1,2.5,2.91,2.53,3.74,0,5.29-1.88,6.85-4.89C51.62,21.82,56.1,15.31,62,10.27,66.76,6.14,71.61,1.53,78.28.18a7.75,7.75,0,0,1,3.38,0c.34.08.89-.07,1,.49s-.45.61-.78.76A51.18,51.18,0,0,0,71.78,7.59a71.05,71.05,0,0,0-19.25,23c-.88,1.64-.41,1.85,1.15,1.75,3.2-.21,6.4-.31,9.6-.46,1.15-.06,2.24-.1,1.94,1.6,0,.27,0,.57.34.63s.57-.22.74-.52c.91-1.55,1.8-3.12,2.79-4.62.79-1.2,1.52-2.49,3.23-2.91L71.2,27.75c-5.59,8.21-9.6,17-11,27-.2,1.48.05,1.73,1.59,1.75,3.3,0,5.24-1.56,7.15-4.09,7.23-9.61,14.53-19.17,22.92-27.83,1.79-1.85,2.49-4.53,3.71-6.81a86.68,86.68,0,0,1,6.32-10.19c1.54-2.11,2.49-.45,3.74.18,1.65.83.51,1.58,0,2.33-3.12,4.67-5.54,9.74-8.44,14.52C96.15,26.35,95,28,93.83,29.77c-.23.36-.82.69-.43,1.19s.88.21,1.32.1c1.11-.27,2.3-.46,2.32-2a1,1,0,0,1,.86-1,.7.7,0,0,1,.89.58c.13,2.51,1.88,1.68,3.2,1.55M83.24,71.5c.32-.8.69-1.59.95-2.41,2.48-7.87,4.75-15.8,7.7-23.52A68.48,68.48,0,0,0,95.27,34.3c.09-.43.59-1-.16-1.39s-4.77.34-5.39,1.07c-6.64,7.85-13.36,15.63-19.24,24.09-1,1.37-2.07,3.2-3.88,3.29-3.23.18-6.49-.14-9.73-.26-.46,0-1.08,0-.88-.71.48-1.67.05-3.74,1.95-4.8a1.69,1.69,0,0,0,.76-1.33,81.79,81.79,0,0,1,6.55-18.61c.54-1.09.2-1.21-.8-1.18q-12.51.31-24.95,1.74c-.76.09-1.19.24-1.25,1.15-.32,5.12-.71,10.24-1.08,15.36-.39,6.33-.75,12.66-1.18,19-.14,2.12-.5,4.23-.65,6.35-.12,1.64.61,2.13,2.32,1.81,4-.77,8.08-1.56,12.2-2,10.35-1.17,20.64-2.85,31-4.24,1.41-.19,2.2-.71,2.42-2.09M18.58,88.12c-.72-.11-1.68.28-1.9-.46C16.1,85.79,14.5,85,13.13,84c-.32-.24-.82-.41-.61-.88.37-.81,1.38-.72,2-1.23.3-.25.62-.24.66.28.08,1.25,1,.65,1.47.55,4-.76,8-1.62,12-2.35,1.2-.22,1.57-.82,1.81-2,.89-4.28.55-8.61.74-12.91a1.28,1.28,0,0,0-.59-1.19c-.49-.25-.81.31-1.13.62-1.2,1.16-2.37,2.35-3.59,3.5-4.62,4.35-9.66,8.24-14.06,12.84-1.06,1.11-1.24,1.91-.25,3.2,5.79,7.6,11.41,15.32,16.63,23.32A125.78,125.78,0,0,0,41.25,125c.67.72,1.17,1.52,2.39.5,11.1-9.28,23.43-16.83,35.27-25.07,8.55-6,17.17-11.81,25.78-17.67,1-.66,1.24-1,.56-2.26a21.84,21.84,0,0,0-3-3.64C98.55,72.64,95.14,68.16,91,64.34c-2-1.86-2.05-1.86-2.83.67-1.1,3.57-2.14,7.15-3.24,10.72a3.08,3.08,0,0,1-3,2.52c-7.7.27-15.25,1.8-22.84,2.9-8.79,1.27-17.6,2.49-26.31,4.19C28,86.27,23.23,87,18.58,88.12"/><path class="cls-1" d="M18.58,88.12C23.23,87,28,86.27,32.8,85.34c8.71-1.7,17.52-2.92,26.31-4.19,7.6-1.1,15.14-2.63,22.84-2.9a3.08,3.08,0,0,0,3-2.52C86,72.16,87.06,68.57,88.16,65c.78-2.52.82-2.52,2.83-.67,4.14,3.82,7.55,8.3,11.22,12.55a21.84,21.84,0,0,1,3,3.64c.68,1.25.41,1.6-.56,2.26-8.61,5.86-17.23,11.72-25.78,17.67-11.84,8.24-24.17,15.79-35.27,25.07-1.23,1-1.72.23-2.39-.5a125.78,125.78,0,0,1-13.08-17.22c-5.22-8-10.85-15.72-16.63-23.32-1-1.29-.81-2.09.25-3.2,4.4-4.6,9.44-8.49,14.06-12.84,1.22-1.15,2.39-2.34,3.59-3.5.32-.31.64-.88,1.13-.62a1.28,1.28,0,0,1,.59,1.19c-.19,4.31.15,8.64-.74,12.91-.23,1.13-.61,1.74-1.81,2-4,.74-8,1.59-12,2.35-.52.1-1.39.7-1.47-.55,0-.52-.36-.53-.66-.28-.61.52-1.62.42-2,1.23-.21.47.29.64.61.88,1.37,1,3,1.76,3.55,3.63.23.74,1.18.36,1.9.46"/><path class="cls-2" d="M37.17,52.71c.37-5.12.76-10.24,1.08-15.36.06-.91.49-1.06,1.25-1.15q12.43-1.42,24.95-1.74c1,0,1.34.09.8,1.18A81.77,81.77,0,0,0,58.7,54.26a1.69,1.69,0,0,1-.76,1.33c-1.9,1.07-1.47,3.14-1.95,4.8-.2.7.41.7.88.71,3.24.12,6.5.43,9.73.26,1.81-.1,2.93-1.92,3.88-3.29C76.36,49.61,83.07,41.83,89.71,34c.62-.73,4.62-1.47,5.39-1.07s.25,1,.17,1.39a68.7,68.7,0,0,1-3.38,11.27c-3,7.72-5.23,15.65-7.7,23.52-.26.82-.63,1.6-.95,2.41C77.15,72.24,71.07,73,65,73.71c-8.4,1-16.8,2.06-25.2,3.17-1.45.19-1.84-.22-1.84-1.64,0-3.06-.17-6.12-.31-9.18-.19-4.45.05-8.91-.47-13.35"/></g></g></svg>