<svg xmlns="http://www.w3.org/2000/svg" width="322.75" height="98.65" viewBox="0 0 322.75 98.65">
  <defs>
    <style>
      .cls-1 {
        fill: #fff;
      }

      .cls-2 {
        fill: #fdf50b;
      }
    </style>
  </defs>
  <title>recuadro-activo-con-texto</title>
  <g id="Layer_2" data-name="Layer 2">
    <g id="Layer_1-2" data-name="Layer 1">
      <g>
        <path class="cls-1" d="M304,93.09c-32.72.47-65.42,1.92-98.12,3.13s-65.41,2-98.12,2.24l-49.09.09-24.54,0-12.27.08c-1,0-2.11-.05-3.2-.13l-1.61-.33a12.12,12.12,0,0,1-1.55-.49A17.4,17.4,0,0,1,10,94.37a22.35,22.35,0,0,1-4.12-4.83,12.45,12.45,0,0,1-.82-1.35c-.26-.46-.53-.92-.76-1.39a30.82,30.82,0,0,1-1.24-2.9A36.2,36.2,0,0,1,.87,71.61L.35,47.07.05,34.81A38.41,38.41,0,0,1,1.32,22.32a27.39,27.39,0,0,1,6.09-11.2,18.26,18.26,0,0,1,5.24-4,16.16,16.16,0,0,1,6.5-1.7Q68.2,3.81,117.27,2.67l49.06-1.12,24.54-.48L215.4.65C231.76.47,248.11.18,264.47.09L276.74,0H289l12.27,0c1,0,2.19.07,3.36.17l1.71.37A13.41,13.41,0,0,1,308,1.1a17.89,17.89,0,0,1,5.76,3.59A23.1,23.1,0,0,1,318,9.77a13.26,13.26,0,0,1,.82,1.41c.25.48.52,1,.75,1.44.41,1,.9,2,1.22,3a36.44,36.44,0,0,1,2,12.53l-.08,24.55c0,4.08,0,8.18,0,12.27a37.94,37.94,0,0,1-1.54,12.25A26.78,26.78,0,0,1,315,87.93a17.26,17.26,0,0,1-5,3.69,15,15,0,0,1-6,1.47m0-.55a14.32,14.32,0,0,0,5.77-1.47,16.67,16.67,0,0,0,4.79-3.6A25.48,25.48,0,0,0,320.35,77a37,37,0,0,0,1.21-12c-.11-4.08-.26-8.17-.42-12.26l-.92-24.52a33.12,33.12,0,0,0-2.33-11.5c-.32-.92-.81-1.76-1.21-2.64-.23-.42-.49-.83-.73-1.24a10.78,10.78,0,0,0-.77-1.21,20.15,20.15,0,0,0-3.78-4.18,14.32,14.32,0,0,0-4.7-2.66,10,10,0,0,0-1.27-.35l-1.3-.22c-.87,0-1.69-.07-2.77,0l-12.27.44L276.83,5l-12.27.34c-16.35.47-32.7.74-49.06,1.12L191,6.92l-24.54.36-49.07.56q-49.08.6-98.16.6a13.28,13.28,0,0,0-5.3,1.25A15.51,15.51,0,0,0,9.35,13,24.89,24.89,0,0,0,3.58,23c-.29.94-.52,1.9-.75,2.86s-.41,1.94-.47,2.93a24.58,24.58,0,0,0-.23,3q-.06,1.48,0,3L2.22,47l.32,24.54A33.09,33.09,0,0,0,4.66,83.3c.31,1,.79,1.82,1.18,2.73.23.44.49.87.73,1.3a10.1,10.1,0,0,0,.77,1.26A21.23,21.23,0,0,0,11.18,93a15.05,15.05,0,0,0,5,2.91,11.31,11.31,0,0,0,1.37.41l1.4.26c.95,0,1.88.1,2.93,0l12.26-.35,24.53-.82,49.06-1.6c32.7-.89,65.42-1.32,98.14-1.12s65.45.42,98.17-.23"/>
        <g>
          <path class="cls-2" d="M26,66.45V66.3c-.18-8.5,6.18-13,15.82-13.24a31.61,31.61,0,0,1,9.9,1.39v-.68c-.09-4.25-2.8-6.63-8.34-6.51a28.89,28.89,0,0,0-11.26,2.51L28.91,39.66a41.23,41.23,0,0,1,16.56-3.53c7.36-.16,12.41,1.49,15.74,4.68,3.17,3,4.55,7.2,4.67,13l.49,23.61-14.27.29L52,73.43a15.47,15.47,0,0,1-12,5.41C32.23,79,26.14,74.65,26,66.45ZM52,62.8l0-1.9A14.92,14.92,0,0,0,46.34,60c-4.18.08-6.56,2.18-6.5,5.22v.15c.06,2.81,2.22,4.43,5.18,4.37C49.2,69.62,52.1,66.9,52,62.8Z"/>
          <path class="cls-2" d="M71.64,56.93v-.16c-.24-11.61,8.59-21.59,21.57-21.86,8.42-.17,14.12,3.35,17.72,8.82l-9.64,7.49c-2-2.69-4.26-4.24-7.76-4.17-4.63.1-8,4.27-7.85,9.28v.15c.11,5.32,3.53,9.27,8.39,9.17,3.42-.07,5.59-1.71,7.81-4.41L111.66,68c-3.68,5.69-9.06,9.6-18.1,9.79A21.19,21.19,0,0,1,71.64,56.93Z"/>
          <path class="cls-2" d="M119.16,63.54l-.34-16.71-4.86.11-.24-11.62,4.86-.1-.22-10.4,14.42-.3.22,10.4,9.56-.2.24,11.62-9.56.2.29,13.89c.06,2.88,1.37,4.07,4,4A12.56,12.56,0,0,0,143,63l.23,11.32a20.72,20.72,0,0,1-10,2.56C124.6,77,119.36,73.33,119.16,63.54Z"/>
          <path class="cls-2" d="M148.49,20.25l15-.32.22,10.63-15,.32Zm.6,14.34,14.42-.3.85,41.07-14.42.3Z"/>
          <path class="cls-2" d="M168.45,34.19l15.18-.32L192,57.7l7.4-24.16,15-.3L198.83,75l-13.13.27Z"/>
          <path class="cls-2" d="M215.33,54V53.8c-.25-11.69,9.12-21.68,22.32-22S260.47,41,260.72,52.71v.15c.24,11.69-9.12,21.68-22.33,22S215.57,65.64,215.33,54Zm31.35-.65v-.15c-.11-5-3.84-9.19-8.92-9.08-5.24.11-8.5,4.35-8.39,9.28v.16c.1,5,3.84,9.18,8.92,9.08C243.53,62.48,246.78,58.23,246.68,53.3Z"/>
        </g>
        <path class="cls-1" d="M271.53,43.14l.59-.7c8.79-.94,11.86-3,11.8-6.32v-.07c-.05-2.58-2.13-4.13-5.77-4.06s-7.48,2-11,5.24l-7.8-9.86A26.66,26.66,0,0,1,278.85,19C290,18.76,298,24.67,298.16,34.54v.15c.2,9.56-6.09,13.8-14.47,16l-.81,4.88-9.19.19Zm-.86,17.1,14.95-.31.27,12.91-14.95.31Z"/>
      </g>
    </g>
  </g>
</svg>
