<svg xmlns="http://www.w3.org/2000/svg" width="20.06" height="16.52" viewBox="0 0 20.06 16.52">
  <defs>
    <style>
      .cls-1 {
        fill: #fff;
      }
    </style>
  </defs>
  <title>Twitter-L</title>
  <g id="Layer_2" data-name="Layer 2">
    <g id="Layer_1-2" data-name="Layer 1">
      <path class="cls-1" d="M20,2a8.21,8.21,0,0,1-2,.58c.32-.06.81-.65,1-.89A3.65,3.65,0,0,0,19.63.45s0-.08,0-.11a.11.11,0,0,0-.11,0,10.34,10.34,0,0,1-2.41.92.15.15,0,0,1-.16,0A2.23,2.23,0,0,0,16.74,1,4.26,4.26,0,0,0,15.57.3,4,4,0,0,0,13.78,0a4.35,4.35,0,0,0-3.06,1.6A4.19,4.19,0,0,0,9.9,3.24,4.38,4.38,0,0,0,9.86,5c0,.1,0,.11-.08.1A12.89,12.89,0,0,1,1.5.86c-.09-.11-.14-.11-.22,0a4.18,4.18,0,0,0,.71,5,5.47,5.47,0,0,0,.51.45A4.2,4.2,0,0,1,.9,5.82c-.09-.06-.14,0-.15.09a1.92,1.92,0,0,0,0,.47A4.22,4.22,0,0,0,3.39,9.76a2.49,2.49,0,0,0,.53.16A4.74,4.74,0,0,1,2.36,10q-.18,0-.12.15a4.42,4.42,0,0,0,3.29,2.75,3.47,3.47,0,0,1,.45.06s0,0,0,0a5.28,5.28,0,0,1-2.24,1.19,8,8,0,0,1-3.42.43c-.18,0-.22,0-.27,0s0,.08.05.13c.24.15.47.29.72.42A11.3,11.3,0,0,0,3.07,16a12.15,12.15,0,0,0,11.79-2.76,12.39,12.39,0,0,0,3.26-9c0-.13.15-.21.24-.27A8.17,8.17,0,0,0,20,2.32a.46.46,0,0,0,.1-.32V2c0-.05,0,0-.08,0"/>
    </g>
  </g>
</svg>
