<svg xmlns="http://www.w3.org/2000/svg" viewBox="0 0 986.93 342.53"><defs><style>.cls-1,.cls-3{fill:#fff;}.cls-2{fill:none;stroke:#fdf50b;stroke-miterlimit:10;stroke-width:24.26px;}.cls-3{font-size:217.47px;letter-spacing:-0.06em;}.cls-16,.cls-3,.cls-7{font-family:Gotham-Black, Gotham Black;}.cls-4{letter-spacing:-0.05em;}.cls-5{letter-spacing:-0.11em;}.cls-6{letter-spacing:0em;}.cls-7{font-size:38.32px;letter-spacing:0.5em;}.cls-16,.cls-7{fill:#fdf50b;}.cls-8{letter-spacing:0.5em;}.cls-9{letter-spacing:0.46em;}.cls-10{letter-spacing:0.49em;}.cls-11{letter-spacing:0.5em;}.cls-12{letter-spacing:0.44em;}.cls-13{letter-spacing:0.49em;}.cls-14{letter-spacing:0em;}.cls-15{fill-rule:evenodd;}.cls-16{font-size:121.47px;letter-spacing:0.14em;}.cls-17{letter-spacing:0.14em;}.cls-18{letter-spacing:0.14em;}.cls-19{letter-spacing:0em;}</style></defs><title>votaSeguroAsset 11</title><g id="Layer_2" data-name="Layer 2"><g id="Layer_1-2" data-name="Layer 1"><rect class="cls-1" x="12.13" y="12.13" width="305.66" height="305.66"/><rect class="cls-2" x="12.13" y="12.13" width="305.66" height="305.66"/><text class="cls-3" transform="translate(368.66 211.94)">V<tspan class="cls-4" x="151.36" y="0">O</tspan><tspan class="cls-5" x="321.2" y="0">T</tspan><tspan class="cls-6" x="441.03" y="0">A</tspan></text><text class="cls-7" transform="translate(367.62 34.04)">PO<tspan class="cls-8" x="95.96" y="0">R</tspan><tspan x="142.63" y="0"> </tspan><tspan class="cls-9" x="172.41" y="0">L</tspan><tspan class="cls-10" x="213.6" y="0">O</tspan><tspan class="cls-11" x="264.38" y="0">S T</tspan><tspan class="cls-8" x="382.75" y="0">U</tspan><tspan class="cls-12" x="430.92" y="0">Y</tspan><tspan class="cls-13" x="475.29" y="0">O</tspan><tspan class="cls-11" x="526.11" y="0">S</tspan><tspan class="cls-14" x="570.25" y="0"> </tspan></text><path class="cls-15" d="M274.57,65c-22.39,25.9-46.61,47.39-69.73,71.54-6.51,4-11.65,11.35-17.77,16.28l0,0c12.69-14.62,26.13-27.19,37.57-41.81,1.79-1.9.3-1.38,1.06-3.35,10.1-9.89,19.63-21.15,29.4-31.83-24.44,23.65-48.74,47.65-73.26,71.12l-.7-.78c15.44-16.82,33.26-33.22,48.29-52-2.92.83-4.82,4.11-7.14,6.4,5.32-10,16.23-16.74,22.8-27.68-14.94,12.78-28.66,28.5-43.63,41.22.95-5.54,7.39-10.21,11.54-14.69C221.6,90.11,231,81,239.8,70.84c5.81-6.67,10.46-12.07,16.39-19.52-13,14-26.42,26.8-39.83,39.74,2.71-4.51,6.52-6.33,9.22-10.84-2.69.95-5.1,6.32-7.6,4.1-.41,1.74-2.42,2.09-3.57,3.2-15.28,14.8-29.52,31.21-44.51,46.2l-1.24-1.36a101.07,101.07,0,0,0,8.24-8.94c-2.89,2.8-5.83,5.59-8.75,8.38-1-1.06-1.93-2.14-2.91-3.2-18.07-19.67-35.55-40.18-53.84-58.7-2.71-2.75-4.54-6.79-9-7.41,1.3,3.19,5.68,5.53,5.67,8-.36-.51-2.35-2.49-2-1.14,13.5,15.64,27.69,29.83,41.68,44.45-.21-.69-.38-1.35.56-1.14,6,6.51,12.34,13.27,18.75,20.13l-2.95,2.84Q131.31,98.53,97.64,63.07c-1.93-.54-4-.77-6-1.16-1.54,3.77-7,2.28-8.6,6.25C81.76,67.37,80,67.6,78.59,67c1.2,6.1-6.39,7.13-10.44,7.95.77,2.88,2.71,3.37,3.76,5.69-1.5-.15-5-5.63-4.65-2.86,1.54,1.67.58.36,2.12,2.85-1.17-.32-2-1.41-3.46-1.14,0,3.62-1.61,3.95-.1,7.39-.44-.31-2.43-2.31-2.23-.57,2.19,2.44,6.47,6.67,5.61,9.11,21.07,21.94,43.27,44.86,65.32,68.12-23.76,22.11-47.65,43.87-70.35,64.7.72,2.5-3.82,6.44-6.16,8.74-.3,1.73,1.81-.14,2.27-.43-1.73,3.35-.18,3.77-.37,7.39,1.46.36,2.34-.67,3.53-.92-1.7,2.39-.66,1.14-2.3,2.7-.51,2.75,3.31-2.5,4.82-2.55-1.19,2.25-3.16,2.63-4.11,5.45,4,1.07,11.5,2.57,9.92,8.59,1.42-.51,3.19-.17,4.53-.87,1.32,4.06,6.89,2.91,8.19,6.78,2-.25,4.09-.36,6-.78q36.23-33.8,71.84-69.1c.93,1,1.86,2,2.8,3C158,203,151,209.65,144.27,216c-.95.15-.74-.49-.48-1.17-14.88,13.71-29.94,27-44.39,41.75-.47,1.33,1.65-.54,2-1-.14,2.44-4.65,4.49-6.15,7.6,4.45-.34,6.52-4.27,9.41-6.84,19.42-17.33,38.15-36.7,57.42-55.2,1.33-1.28,2.65-2.58,4-3.86,3,3.27,6,6.55,9,9.83a108.1,108.1,0,0,0-8.47-10.37l1.32-1.28c14.33,16.16,27.75,33.8,42.34,49.82,1.08,1.19,3.06,1.66,3.36,3.43,2.63-2.06,4.7,3.45,7.33,4.56-2.42-4.66-6.1-6.73-8.52-11.39,12.56,13.76,25.19,27.4,37.25,42.17-5.45-7.8-9.75-13.49-15.13-20.51-8.16-10.64-17-20.38-25-30.2-3.87-4.72-10-9.79-10.6-15.38,14.14,13.64,26.84,30.19,41,43.88-5.88-11.32-16.34-18.73-21-29,2.16,2.42,3.86,5.83,6.72,6.84-14.07-20-31.2-37.77-45.73-55.84l.69-.69c23.29,25.24,46.3,51,69.5,76.48-9.08-11.28-17.89-23.11-27.35-33.61-.63-2,.83-1.4-.85-3.41-10.58-15.43-23.32-28.9-35.14-44.43,6,5.32,10.67,13.16,17,17.66,21.56,25.55,44.38,48.53,65.11,75.78.51,0,.24-1-.45-1.13-25.6-33.54-52.22-65-79-96.12l3.26-3.27,1.36,1.41c9.57,9.73,17.42,21.76,26.78,29.63q-13.37-16.35-27-32.24c1.31-1.31,2.59-2.63,3.88-3.95,7.27,8,14.23,15.79,20.43,23.11-6.57-7.9-13.27-15.72-20-23.5,6.93-7.05,13.81-14.14,20.57-21.3-6.39,6.63-13.5,13.68-20.92,20.89l-3.66-4.21q14.1-14.6,28-29.57c-9.83,7.26-18.43,18.78-28.59,27.89l-.51.47L190,156.16c28.38-29.1,56.63-58.53,84-90.07.7-.1,1-1.07.51-1.11M181,147.63l-3.39,3.24-.4-.47c1-1.17,2.06-2.34,3.12-3.5l.67.72m-22.14,40.46,1.2-1.23c.64.67,1.26,1.34,1.89,2l-1.29,1.22c-.6-.67-1.21-1.34-1.8-2m1.51-47.6,1.76-1.72c.29.21.56.44.85.64l.51.56-2,1.87-1.14-1.33m12.52,34.2,1.87,2-.18.17c-.56-.73-1.15-1.46-1.69-2.2m8.56-9.72,2.75-2.82,2.9,3c-1,.94-2,1.85-3,2.8l-2.6-3m-8.4-9.74,0,0c.73-.86,1.5-1.71,2.23-2.56l.25.26L173,155.23m-5.38-21.88,1.25,1.34c-1,1-2,2-3,2.94l-1.24-1.39c1-1,2-1.92,2.95-2.88m-16.57-3.64a54.68,54.68,0,0,1-12.21-13.11c3.06,1.61,9.89,11.74,9.18,8,.68,1,3.26,3.87.9,2.28,3.57,2.29,7.93,7.77,12.44,11.38l-1.65,1.56q-4.34-5-8.67-10.09m-6.39,74.38c.94-3.7-6.51,6-9.66,7.39a55,55,0,0,1,13-12.32l10.14-10.4,1.73,1.86c-5.09,3.23-10.18,9-14.17,11.25,2.45-1.44-.3,1.29-1,2.22m21-8.37-2.79-3.08,1.3-1.3c.94,1,1.89,2.07,2.82,3.11l-1.34,1.27M179.25,183c-1-1.25-1.94-2.5-2.91-3.76l.36-.36,3.21,3.49-.66.63M189,173.7l-3.37-3.92c1-1,2-2,3-3.05,1.23,1.28,2.45,2.55,3.69,3.82L189,173.7m8.5-8.2-4,3.84c-1.16-1.36-2.32-2.74-3.48-4.09,1.24-1.27,2.46-2.57,3.7-3.85,1.26,1.38,2.48,2.73,3.73,4.1m-4.85-5.32c-1.3,1.17-2.6,2.36-3.89,3.54l-2.84-3.29,3.59-3.67,3.15,3.41"/><text class="cls-16" transform="translate(368.91 321.51)">S<tspan class="cls-17" x="96.08" y="0">E</tspan><tspan class="cls-18" x="193.5" y="0">G</tspan><tspan x="303.91" y="0">UR</tspan><tspan class="cls-19" x="517.09" y="0">O</tspan></text></g></g></svg>