<svg xmlns="http://www.w3.org/2000/svg" width="1917.02" height="787.07" viewBox="0 0 1917.02 787.07">
  <defs>
    <style>
      .cls-1 {
        fill: #eee;
        opacity: 0.25;
      }
    </style>
  </defs>
  <title>X-completas</title>
  <g id="Layer_2" data-name="Layer 2">
    <g id="Layer_1-2" data-name="Layer 1">
      <g>
        <polygon class="cls-1" points="1010.13 269.07 1040.9 220.98 1071.44 269.07 1119.31 269.07 1122.27 269.07 1168.99 269.07 1199.76 220.98 1230.3 269.07 1278.16 269.07 1281.13 269.07 1327.85 269.07 1358.62 220.98 1389.16 269.07 1437.02 269.07 1439.99 269.07 1486.71 269.07 1505.8 239.24 1461.97 232.06 1438.51 266.87 1409.4 223.45 1318.91 208.63 1279.65 266.86 1230.95 194.22 1171.72 184.52 1174.01 187.93 1120.79 266.87 1067.57 187.47 1079.7 169.44 993.33 155.29 1015.15 187.93 960.45 269.07 1010.13 269.07"/>
        <polygon class="cls-1" points="0.23 95.63 49.91 95.63 80.68 47.53 111.22 95.63 159.09 95.63 162.05 95.63 208.77 95.63 239.54 47.53 270.08 95.63 317.95 95.63 320.91 95.63 367.63 95.63 392.43 56.87 348.88 49.74 319.43 93.42 282.9 38.93 205.82 26.3 160.57 93.42 107.35 14.03 109.69 10.56 45.24 0 54.93 14.48 0.23 95.63"/>
        <polygon class="cls-1" points="587.8 95.63 629.04 95.63 583.01 88.09 587.8 95.63"/>
        <polygon class="cls-1" points="886.24 137.75 875.66 154.43 862.75 133.91 806.74 124.73 849 187.93 795.78 266.87 742.56 187.47 786.93 121.49 742.34 114.18 716.8 154.43 688.54 109.53 637.71 109.53 690.14 187.93 636.92 266.87 583.7 187.47 636.12 109.53 586.43 109.53 557.94 154.43 529.68 109.53 478.86 109.53 531.28 187.93 478.06 266.87 424.84 187.47 477.26 109.53 427.57 109.53 399.08 154.43 370.82 109.53 320 109.53 372.42 187.93 319.2 266.87 265.98 187.47 318.4 109.53 268.72 109.53 240.23 154.43 211.96 109.53 161.14 109.53 213.56 187.93 160.34 266.87 107.12 187.47 159.54 109.53 109.86 109.53 81.37 154.43 53.1 109.53 2.28 109.53 54.7 187.93 0 269.07 49.69 269.07 80.46 220.98 111 269.07 158.86 269.07 161.82 269.07 208.54 269.07 239.31 220.98 269.86 269.07 317.72 269.07 320.68 269.07 367.4 269.07 398.17 220.98 428.71 269.07 476.58 269.07 479.54 269.07 526.26 269.07 557.03 220.98 587.57 269.07 635.44 269.07 638.4 269.07 685.12 269.07 715.89 220.98 746.43 269.07 794.29 269.07 797.26 269.07 843.98 269.07 874.75 220.98 905.29 269.07 956.12 269.07 901.42 187.47 930.03 144.93 886.24 137.75"/>
        <polygon class="cls-1" points="405.71 59.04 428.94 95.63 476.81 95.63 479.77 95.63 526.49 95.63 536.22 80.42 491.94 73.17 478.29 93.42 461.36 68.16 405.71 59.04"/>
        <polygon class="cls-1" points="1595.88 269.07 1598.85 269.07 1645.57 269.07 1649.59 262.79 1605.04 255.49 1597.37 266.87 1587.86 252.68 1531.78 243.49 1548.02 269.07 1595.88 269.07"/>
        <polygon class="cls-1" points="954.07 454.08 904.38 454.08 875.89 498.98 847.63 454.08 796.8 454.08 849.22 532.49 796.01 611.42 742.79 532.03 795.21 454.08 745.52 454.08 717.03 498.98 688.77 454.08 637.94 454.08 690.36 532.49 637.15 611.42 583.93 532.03 636.35 454.08 586.66 454.08 558.17 498.98 529.91 454.08 479.08 454.08 531.5 532.49 478.29 611.42 425.07 532.03 477.49 454.08 427.8 454.08 399.31 498.98 371.05 454.08 320.23 454.08 372.65 532.49 319.43 611.42 266.21 532.03 318.63 454.08 268.94 454.08 240.46 498.98 212.19 454.08 161.37 454.08 213.79 532.49 160.57 611.42 107.35 532.03 159.77 454.08 110.08 454.08 81.59 498.98 53.33 454.08 2.51 454.08 54.93 532.49 0.23 613.63 49.91 613.63 80.68 565.53 111.22 613.63 159.09 613.63 162.05 613.63 208.77 613.63 239.54 565.53 270.08 613.63 317.95 613.63 320.91 613.63 367.63 613.63 398.4 565.53 428.94 613.63 476.81 613.63 479.77 613.63 526.49 613.63 557.26 565.53 587.8 613.63 635.66 613.63 638.63 613.63 685.35 613.63 716.12 565.53 746.66 613.63 794.52 613.63 797.49 613.63 844.21 613.63 874.98 565.53 905.52 613.63 956.35 613.63 901.64 532.03 954.07 454.08"/>
        <polygon class="cls-1" points="953.84 627.53 904.15 627.53 875.66 672.43 847.4 627.53 796.57 627.53 849 705.93 795.78 784.87 742.56 705.48 794.98 627.53 745.29 627.53 716.8 672.43 688.54 627.53 637.71 627.53 690.14 705.93 636.92 784.87 583.7 705.48 636.12 627.53 586.43 627.53 557.94 672.43 529.68 627.53 478.86 627.53 531.28 705.93 478.06 784.87 424.84 705.48 477.26 627.53 427.57 627.53 399.08 672.43 370.82 627.53 320 627.53 372.42 705.93 319.2 784.87 265.98 705.48 318.4 627.53 268.72 627.53 240.23 672.43 211.96 627.53 161.14 627.53 213.56 705.93 160.34 784.87 107.12 705.48 159.54 627.53 109.86 627.53 81.37 672.43 53.1 627.53 2.28 627.53 54.7 705.93 0 787.07 49.69 787.07 80.46 738.98 111 787.07 158.86 787.07 161.82 787.07 208.54 787.07 239.31 738.98 269.86 787.07 317.72 787.07 320.68 787.07 367.4 787.07 398.17 738.98 428.71 787.07 476.58 787.07 479.54 787.07 526.26 787.07 557.03 738.98 587.57 787.07 635.44 787.07 638.4 787.07 685.12 787.07 715.89 738.98 746.43 787.07 794.29 787.07 797.26 787.07 843.98 787.07 874.75 738.98 905.29 787.07 956.12 787.07 901.42 705.48 953.84 627.53"/>
        <polygon class="cls-1" points="1899.8 303.77 1855.55 296.53 1836.57 326.45 1813.38 289.62 1764.11 281.55 1757.48 281.55 1809.9 359.95 1756.68 438.89 1703.46 359.5 1755.88 281.55 1706.2 281.55 1677.71 326.45 1649.44 281.55 1598.62 281.55 1651.04 359.95 1597.82 438.88 1544.6 359.5 1597.02 281.55 1547.34 281.55 1518.85 326.45 1490.58 281.55 1439.76 281.55 1492.18 359.95 1438.97 438.88 1385.74 359.5 1438.17 281.55 1388.48 281.55 1359.99 326.45 1331.73 281.55 1280.9 281.55 1333.32 359.95 1280.11 438.89 1226.88 359.5 1279.31 281.55 1229.62 281.55 1201.13 326.45 1172.87 281.55 1122.04 281.55 1174.46 359.95 1121.25 438.89 1068.03 359.5 1120.45 281.55 1070.76 281.55 1042.27 326.45 1014.01 281.55 963.18 281.55 1015.6 359.95 960.9 441.09 1010.59 441.09 1041.36 393 1071.9 441.09 1119.76 441.09 1122.73 441.09 1169.45 441.09 1200.22 393 1230.76 441.09 1278.62 441.09 1281.59 441.09 1328.31 441.09 1359.08 393 1389.62 441.09 1437.48 441.09 1440.44 441.09 1487.17 441.09 1517.93 393 1548.48 441.09 1596.34 441.09 1599.3 441.09 1646.02 441.09 1676.79 393 1707.34 441.09 1755.2 441.09 1758.16 441.09 1804.88 441.09 1835.65 393 1866.19 441.09 1917.02 441.09 1862.32 359.5 1899.8 303.77"/>
        <polygon class="cls-1" points="1914.51 454.08 1864.83 454.08 1836.34 498.98 1808.07 454.08 1757.25 454.08 1809.67 532.49 1756.45 611.42 1703.23 532.03 1755.65 454.08 1705.97 454.08 1677.48 498.98 1649.21 454.08 1598.39 454.08 1650.81 532.49 1597.6 611.42 1544.38 532.03 1596.8 454.08 1547.11 454.08 1518.62 498.98 1490.36 454.08 1439.53 454.08 1491.95 532.49 1438.74 611.42 1385.52 532.03 1437.94 454.08 1388.25 454.08 1359.76 498.98 1331.5 454.08 1280.67 454.08 1333.09 532.49 1279.88 611.42 1226.66 532.03 1279.08 454.08 1229.39 454.08 1200.9 498.98 1172.64 454.08 1121.81 454.08 1174.23 532.49 1121.02 611.42 1067.8 532.03 1120.22 454.08 1070.53 454.08 1042.04 498.98 1013.78 454.08 962.95 454.08 1015.38 532.49 960.67 613.63 1010.36 613.63 1041.13 565.53 1071.67 613.63 1119.53 613.63 1122.5 613.63 1169.22 613.63 1199.99 565.53 1230.53 613.63 1278.39 613.63 1281.36 613.63 1328.08 613.63 1358.85 565.53 1389.39 613.63 1437.25 613.63 1440.22 613.63 1486.94 613.63 1517.71 565.53 1548.25 613.63 1596.11 613.63 1599.08 613.63 1645.8 613.63 1676.57 565.53 1707.11 613.63 1754.97 613.63 1757.93 613.63 1804.65 613.63 1835.42 565.53 1865.97 613.63 1916.79 613.63 1862.09 532.03 1914.51 454.08"/>
        <polygon class="cls-1" points="1914.29 627.53 1864.6 627.53 1836.11 672.43 1807.85 627.53 1757.02 627.53 1809.44 705.93 1756.23 784.87 1703.01 705.48 1755.43 627.53 1705.74 627.53 1677.25 672.43 1648.99 627.53 1598.16 627.53 1650.58 705.93 1597.37 784.87 1544.15 705.48 1596.57 627.53 1546.88 627.53 1518.39 672.43 1490.13 627.53 1439.3 627.53 1491.72 705.93 1438.51 784.87 1385.29 705.48 1437.71 627.53 1388.02 627.53 1359.53 672.43 1331.27 627.53 1280.44 627.53 1332.87 705.93 1279.65 784.87 1226.43 705.48 1278.85 627.53 1229.16 627.53 1200.67 672.43 1172.41 627.53 1121.58 627.53 1174.01 705.93 1120.79 784.87 1067.57 705.48 1119.99 627.53 1070.3 627.53 1041.81 672.43 1013.55 627.53 962.73 627.53 1015.15 705.93 960.45 787.07 1010.13 787.07 1040.9 738.98 1071.44 787.07 1119.31 787.07 1122.27 787.07 1168.99 787.07 1199.76 738.98 1230.3 787.07 1278.16 787.07 1281.13 787.07 1327.85 787.07 1358.62 738.98 1389.16 787.07 1437.02 787.07 1439.99 787.07 1486.71 787.07 1517.48 738.98 1548.02 787.07 1595.88 787.07 1598.85 787.07 1645.57 787.07 1676.34 738.98 1706.88 787.07 1754.74 787.07 1757.71 787.07 1804.43 787.07 1835.2 738.98 1865.74 787.07 1916.57 787.07 1861.86 705.48 1914.29 627.53"/>
        <polygon class="cls-1" points="954.29 281.55 904.61 281.55 876.12 326.45 847.86 281.55 797.03 281.55 849.45 359.95 796.24 438.89 743.01 359.5 795.44 281.55 745.75 281.55 717.26 326.45 689 281.55 638.17 281.55 690.59 359.95 637.38 438.89 584.15 359.5 636.58 281.55 586.89 281.55 558.4 326.45 530.14 281.55 479.31 281.55 531.73 359.95 478.52 438.89 425.3 359.5 477.72 281.55 428.03 281.55 399.54 326.45 371.28 281.55 320.45 281.55 372.87 359.95 319.66 438.89 266.44 359.5 318.86 281.55 269.17 281.55 240.68 326.45 212.42 281.55 161.59 281.55 214.01 359.95 160.8 438.89 107.58 359.5 160 281.55 110.31 281.55 81.82 326.45 53.56 281.55 2.73 281.55 55.16 359.95 0.46 441.09 50.14 441.09 80.91 393 111.45 441.09 159.31 441.09 162.28 441.09 209 441.09 239.77 393 270.31 441.09 318.17 441.09 321.14 441.09 367.86 441.09 398.63 393 429.17 441.09 477.03 441.09 480 441.09 526.72 441.09 557.49 393 588.03 441.09 635.89 441.09 638.86 441.09 685.58 441.09 716.35 393 746.89 441.09 794.75 441.09 797.72 441.09 844.44 441.09 875.21 393 905.75 441.09 956.57 441.09 901.87 359.5 954.29 281.55"/>
      </g>
    </g>
  </g>
</svg>
