<?xml version="1.0" encoding="utf-8"?>
<!-- Generator: Adobe Illustrator 21.0.0, SVG Export Plug-In . SVG Version: 6.00 Build 0)  -->
<svg version="1.1" id="Layer_1" xmlns="http://www.w3.org/2000/svg" xmlns:xlink="http://www.w3.org/1999/xlink" x="0px" y="0px"
	 viewBox="0 0 1921.8 365" style="enable-background:new 0 0 1921.8 365;" xml:space="preserve">
<style type="text/css">
	.st0{opacity:0.35;fill:#EEEEEE;enable-background:new    ;}
	.st1{font-family:'Gotham-Black';}
	.st2{font-size:227.92px;}
</style>
<title>x-pregsAsset 1</title>
<text transform="matrix(1 0 0 1 0.232 173.3848)" class="st0 st1 st2">X</text>
<text transform="matrix(1 0 0 1 159.0819 173.3848)" class="st0 st1 st2">X</text>
<text transform="matrix(1 0 0 1 317.942 173.3848)" class="st0 st1 st2">X</text>
<text transform="matrix(1 0 0 1 476.8019 173.3848)" class="st0 st1 st2">X</text>
<text transform="matrix(1 0 0 1 635.662 173.3848)" class="st0 st1 st2">X</text>
<text transform="matrix(1 0 0 1 794.522 173.3848)" class="st0 st1 st2">X</text>
<text transform="matrix(1 0 0 1 1.923828e-03 345.9148)" class="st0 st1 st2">X</text>
<text transform="matrix(1 0 0 1 158.8619 345.9148)" class="st0 st1 st2">X</text>
<text transform="matrix(1 0 0 1 317.722 345.9148)" class="st0 st1 st2">X</text>
<text transform="matrix(1 0 0 1 476.5719 345.9148)" class="st0 st1 st2">X</text>
<text transform="matrix(1 0 0 1 635.4319 345.9148)" class="st0 st1 st2">X</text>
<text transform="matrix(1 0 0 1 794.292 345.9148)" class="st0 st1 st2">X</text>
<text transform="matrix(1 0 0 1 960.672 173.3848)" class="st0 st1 st2">X</text>
<text transform="matrix(1 0 0 1 1119.532 173.3848)" class="st0 st1 st2">X</text>
<text transform="matrix(1 0 0 1 1278.392 173.3848)" class="st0 st1 st2">X</text>
<text transform="matrix(1 0 0 1 1437.252 173.3848)" class="st0 st1 st2">X</text>
<text transform="matrix(1 0 0 1 1596.1119 173.3848)" class="st0 st1 st2">X</text>
<text transform="matrix(1 0 0 1 1754.9719 173.3848)" class="st0 st1 st2">X</text>
<text transform="matrix(1 0 0 1 960.442 345.9148)" class="st0 st1 st2">X</text>
<text transform="matrix(1 0 0 1 1119.302 345.9148)" class="st0 st1 st2">X</text>
<text transform="matrix(1 0 0 1 1278.162 345.9148)" class="st0 st1 st2">X</text>
<text transform="matrix(1 0 0 1 1437.022 345.9148)" class="st0 st1 st2">X</text>
<text transform="matrix(1 0 0 1 1595.882 345.9148)" class="st0 st1 st2">X</text>
<text transform="matrix(1 0 0 1 1754.7419 345.9148)" class="st0 st1 st2">X</text>
</svg>
