<svg xmlns="http://www.w3.org/2000/svg" viewBox="0 0 1916.79 226.99"><defs><style>.cls-1,.cls-3{opacity:0.25;}.cls-2,.cls-3{fill:#eee;}.cls-3{isolation:isolate;}</style></defs><title>xsxAsset 1</title><g id="Layer_2" data-name="Layer 2"><g id="Layer_1-2" data-name="Layer 1"><g id="Layer_1-2-2" data-name="Layer 1-2"><g class="cls-1"><path class="cls-2" d="M54.7,73.4,2.28,0H53.11L81.37,42,109.86,0h49.68L107.12,73l54.7,76.38H111l-30.54-45-30.77,45H0Z"/></g><g class="cls-1"><path class="cls-2" d="M213.56,73.4,161.14,0H212l28.27,42L268.72,0H318.4L266,73l54.7,76.38H269.86l-30.55-45-30.76,45H158.86Z"/></g><g class="cls-1"><path class="cls-2" d="M372.42,73.4,320,0h50.82l28.27,42L427.58,0h49.68L424.84,73l54.7,76.38H428.72l-30.55-45-30.77,45H317.72Z"/></g><g class="cls-1"><path class="cls-2" d="M531.28,73.4,478.86,0h50.82l28.26,42L586.43,0h49.69L583.7,73l54.7,76.38H587.57l-30.54-45-30.77,45H476.58Z"/></g><g class="cls-1"><path class="cls-2" d="M690.14,73.4,637.71,0h50.83L716.8,42,745.29,0H795L742.56,73l54.7,76.38H746.43l-30.54-45-30.77,45H635.44Z"/></g><g class="cls-1"><path class="cls-2" d="M849,73.4,796.57,0H847.4l28.26,42L904.15,0h49.69L901.42,73l54.7,76.38H905.29l-30.54-45-30.77,45H794.3Z"/></g><g class="cls-1"><path class="cls-2" d="M1015.38,73.4,963,0h50.83L1042,42l28.49-42h49.69L1067.8,73l54.7,76.38h-50.83l-30.54-45-30.77,45H960.67Z"/></g><g class="cls-1"><path class="cls-2" d="M1174.24,73.4,1121.81,0h50.83l28.26,42,28.49-42h49.69l-52.42,73,54.7,76.38h-50.83l-30.54-45-30.77,45h-49.69Z"/></g><g class="cls-1"><path class="cls-2" d="M1333.09,73.4,1280.67,0h50.83l28.26,42,28.49-42h49.69l-52.42,73,54.7,76.38h-50.83l-30.54-45-30.77,45h-49.69Z"/></g><g class="cls-1"><path class="cls-2" d="M1492,73.4,1439.53,0h50.83l28.26,42,28.49-42h49.69l-52.42,73,54.7,76.38h-50.83l-30.54-45-30.77,45h-49.69Z"/></g><g class="cls-1"><path class="cls-2" d="M1650.81,73.4,1598.39,0h50.83l28.26,42L1706,0h49.69l-52.42,73,54.7,76.38h-50.83l-30.54-45-30.77,45h-49.69Z"/></g><g class="cls-1"><path class="cls-2" d="M1809.67,73.4,1757.25,0h50.83l28.26,42,28.49-42h49.69l-52.43,73,54.7,76.38H1866l-30.54-45-30.77,45H1755Z"/></g><polygon class="cls-3" points="1231.82 226.99 1278.85 161.52 1229.16 161.52 1200.67 203.55 1172.41 161.52 1121.59 161.52 1168.35 226.99 1231.82 226.99"/><polygon class="cls-3" points="1549.54 226.99 1596.57 161.52 1546.88 161.52 1518.39 203.55 1490.13 161.52 1439.31 161.52 1486.07 226.99 1549.54 226.99"/><polygon class="cls-3" points="1390.67 226.99 1437.71 161.52 1388.02 161.52 1359.53 203.55 1331.27 161.52 1280.44 161.52 1327.21 226.99 1390.67 226.99"/><polygon class="cls-3" points="1708.39 226.99 1755.43 161.52 1705.74 161.52 1677.25 203.55 1648.99 161.52 1598.16 161.52 1644.92 226.99 1708.39 226.99"/><polygon class="cls-3" points="1867.25 226.99 1914.29 161.52 1864.6 161.52 1836.11 203.55 1807.85 161.52 1757.02 161.52 1803.79 226.99 1867.25 226.99"/><polygon class="cls-3" points="1072.96 226.99 1119.99 161.52 1070.31 161.52 1041.82 203.55 1013.55 161.52 962.73 161.52 1009.49 226.99 1072.96 226.99"/><polygon class="cls-3" points="430 226.99 477.03 161.52 427.35 161.52 398.86 203.55 370.6 161.52 319.77 161.52 366.53 226.99 430 226.99"/><polygon class="cls-3" points="271.14 226.99 318.18 161.52 268.49 161.52 240 203.55 211.74 161.52 160.91 161.52 207.67 226.99 271.14 226.99"/><polygon class="cls-3" points="112.28 226.99 159.32 161.52 109.63 161.52 81.14 203.55 52.88 161.52 2.05 161.52 48.81 226.99 112.28 226.99"/><polygon class="cls-3" points="747.72 226.99 794.75 161.52 745.07 161.52 716.58 203.55 688.31 161.52 637.49 161.52 684.25 226.99 747.72 226.99"/><polygon class="cls-3" points="906.58 226.99 953.61 161.52 903.92 161.52 875.43 203.55 847.17 161.52 796.35 161.52 843.11 226.99 906.58 226.99"/><polygon class="cls-3" points="588.86 226.99 635.89 161.52 586.21 161.52 557.72 203.55 529.46 161.52 478.63 161.52 525.39 226.99 588.86 226.99"/></g></g></g></svg>