<?xml version="1.0" encoding="utf-8"?>
<!-- Generator: Adobe Illustrator 21.0.0, SVG Export Plug-In . SVG Version: 6.00 Build 0)  -->
<svg version="1.1" id="Layer_1" xmlns="http://www.w3.org/2000/svg" xmlns:xlink="http://www.w3.org/1999/xlink" x="0px" y="0px"
	 viewBox="0 0 1922 297.3" style="enable-background:new 0 0 1922 297.3;" xml:space="preserve">
<style type="text/css">
	.st0{fill:#FFFFFF;}
	.st1{clip-path:url(#SVGID_2_);}
	.st2{opacity:0.35;fill:#EEEEEE;enable-background:new    ;}
	.st3{font-family:'Gotham-Black';}
	.st4{font-size:227.92px;}
</style>
<polygon class="st0" points="0,0 0,297.3 1922,297.3 "/>
<title>xArribaAsset 1</title>
<g id="Layer_2">
	<g id="Layer_1-2">
		<g>
			<defs>
				<polygon id="SVGID_1_" points="0,297.3 1922,297.3 0,0 				"/>
			</defs>
			<clipPath id="SVGID_2_">
				<use xlink:href="#SVGID_1_"  style="overflow:visible;"/>
			</clipPath>
			<g class="st1">
				<text transform="matrix(1 0 0 1 0.8 123.86)" class="st2 st3 st4">X</text>
				<text transform="matrix(1 0 0 1 159.66 123.86)" class="st2 st3 st4">X</text>
				<text transform="matrix(1 0 0 1 318.52 123.86)" class="st2 st3 st4">X</text>
				<text transform="matrix(1 0 0 1 477.37 123.86)" class="st2 st3 st4">X</text>
				<text transform="matrix(1 0 0 1 0.57 297.3)" class="st2 st3 st4">X</text>
				<text transform="matrix(1 0 0 1 159.43 297.3)" class="st2 st3 st4">X</text>
				<text transform="matrix(1 0 0 1 318.29 297.3)" class="st2 st3 st4">X</text>
				<text transform="matrix(1 0 0 1 477.15 297.3)" class="st2 st3 st4">X</text>
				<text transform="matrix(1 0 0 1 636.01 297.3)" class="st2 st3 st4">X</text>
				<text transform="matrix(1 0 0 1 794.86 297.3)" class="st2 st3 st4">X</text>
				<text transform="matrix(1 0 0 1 961.02 297.3)" class="st2 st3 st4">X</text>
				<text transform="matrix(1 0 0 1 1119.88 297.3)" class="st2 st3 st4">X</text>
				<text transform="matrix(1 0 0 1 1278.73 297.3)" class="st2 st3 st4">X</text>
				<text transform="matrix(1 0 0 1 1437.59 297.3)" class="st2 st3 st4">X</text>
				<text transform="matrix(1 0 0 1 1596.9099 297.3)" class="st2 st3 st4">X</text>
				<text transform="matrix(1 0 0 1 1755.7699 297.3)" class="st2 st3 st4">X</text>
				<text transform="matrix(1 0 0 1 636.46 123.86)" class="st2 st3 st4">X</text>
			</g>
		</g>
	</g>
</g>
</svg>
